<svg width="110" height="107" viewBox="0 0 110 107" fill="none" xmlns="http://www.w3.org/2000/svg">
<g filter="url(#filter0_d_28_17)">
<mask id="mask0_28_17" style="mask-type:alpha" maskUnits="userSpaceOnUse" x="0" y="0" width="110" height="99">
<rect width="110" height="99" fill="#D9D9D9"/>
</mask>
<g mask="url(#mask0_28_17)">
<path d="M32.0834 44.601C29.5625 44.601 27.4045 43.6648 25.6094 41.7924C23.8143 39.92 22.9167 37.6692 22.9167 35.0399C22.9167 32.4106 23.8143 30.1598 25.6094 28.2874C27.4045 26.415 29.5625 25.4788 32.0834 25.4788C34.6042 25.4788 36.7622 26.415 38.5573 28.2874C40.3524 30.1598 41.25 32.4106 41.25 35.0399C41.25 37.6692 40.3524 39.92 38.5573 41.7924C36.7622 43.6648 34.6042 44.601 32.0834 44.601ZM18.3334 111.528C15.8125 111.528 13.6545 110.592 11.8594 108.72C10.0643 106.848 9.16669 104.597 9.16669 101.967V63.7231H22.9167V60.1377C22.9167 57.1101 23.9097 54.5604 25.8959 52.4889C27.882 50.4173 30.3264 49.3815 33.2292 49.3815C34.757 49.3815 36.1702 49.7002 37.4688 50.3376C38.7674 50.975 39.9514 51.8515 41.0209 52.9669L47.4375 60.3768C47.9722 61.0142 48.5452 61.6117 49.1563 62.1695C49.7674 62.7272 50.4167 63.2451 51.1042 63.7231H100.833V101.967C100.833 104.597 99.9358 106.848 98.1406 108.72C96.3455 110.592 94.1875 111.528 91.6667 111.528H18.3334ZM82.5 54.1621L82.9584 51.2937C83.3403 49.3018 83.2066 47.3697 82.5573 45.4973C81.908 43.625 80.8959 41.9717 79.5209 40.5375C77.3056 38.2269 75.6632 35.5379 74.5938 32.4704C73.5243 29.4029 73.1806 26.1959 73.5625 22.8495L73.7917 20.6983H82.5L82.0417 23.5666C81.7361 25.4788 81.8698 27.3711 82.4427 29.2435C83.0156 31.1159 83.9514 32.7293 85.25 34.0838C87.5417 36.4741 89.2413 39.2229 90.349 42.3302C91.4566 45.4376 91.8195 48.6644 91.4375 52.0108L91.2083 54.1621H82.5ZM64.1667 54.1621L64.625 51.2937C65.007 49.3018 64.8733 47.3697 64.224 45.4973C63.5747 43.625 62.5625 41.9717 61.1875 40.5375C58.9722 38.2269 57.3299 35.5379 56.2604 32.4704C55.191 29.4029 54.8472 26.1959 55.2292 22.8495L55.4584 20.6983H64.1667L63.7084 23.5666C63.3264 25.4788 63.441 27.3711 64.0521 29.2435C64.6632 31.1159 65.6181 32.7293 66.9167 34.0838C69.2084 36.4741 70.908 39.2229 72.0156 42.3302C73.1233 45.4376 73.4861 48.6644 73.1042 52.0108L72.875 54.1621H64.1667ZM77.9167 101.967H87.0834V73.2842H77.9167V101.967ZM59.5834 101.967H68.75V73.2842H59.5834V101.967ZM41.25 101.967H50.4167V73.2842H41.25V101.967ZM22.9167 101.967H32.0834V73.2842H22.9167V101.967Z" fill="white"/>
</g>
</g>
<defs>
<filter id="filter0_d_28_17" x="5.16669" y="20.6983" width="99.6667" height="86.3017" filterUnits="userSpaceOnUse" color-interpolation-filters="sRGB">
<feFlood flood-opacity="0" result="BackgroundImageFix"/>
<feColorMatrix in="SourceAlpha" type="matrix" values="0 0 0 0 0 0 0 0 0 0 0 0 0 0 0 0 0 0 127 0" result="hardAlpha"/>
<feOffset dy="4"/>
<feGaussianBlur stdDeviation="2"/>
<feComposite in2="hardAlpha" operator="out"/>
<feColorMatrix type="matrix" values="0 0 0 0 0 0 0 0 0 0 0 0 0 0 0 0 0 0 0.25 0"/>
<feBlend mode="normal" in2="BackgroundImageFix" result="effect1_dropShadow_28_17"/>
<feBlend mode="normal" in="SourceGraphic" in2="effect1_dropShadow_28_17" result="shape"/>
</filter>
</defs>
</svg>
